<?xml version="1.0" encoding="UTF-8" standalone="no"?>
<svg xmlns="http://www.w3.org/2000/svg" xmlns:xlink="http://www.w3.org/1999/xlink" viewBox="0 0 604.305 326.233" version="1.1" style="fill-rule:nonzero;clip-rule:evenodd;stroke-linecap:round;stroke-linejoin:round;">
  <defs/>
  <g id="one_drop">
    <path d="M500.294 165.334C500.294 129.506 537.678 115.448 552.3 90.9796C567.218 114.754 604.305 128.503 604.305 165.334C604.305 194.056 581.022 217.34 552.3 217.34C523.578 217.34 500.294 194.056 500.294 165.334Z" fill="currentColor" fill-rule="nonzero"/>
    <path d="M0 0L0 212.5L485.688 212.5C485.688 212.5 468.535 193.129 470.25 158.531C472.845 110.731 527.57 79.4353 552.312 53.375C570.935 76.3192 595.281 91.4375 595.281 91.4375L595.281 0L0 0ZM253.844 26.4375C275.565 26.4375 292.177 32.333 303.656 44.1562C318.985 58.1104 326.656 79.0042 326.656 106.844C326.656 134.133 318.985 155.027 303.656 169.531C292.177 181.354 275.565 187.281 253.844 187.281C232.122 187.281 215.511 181.354 204.031 169.531C188.634 155.027 180.938 134.133 180.938 106.844C180.938 79.0042 188.634 58.1104 204.031 44.1562C215.511 32.333 232.122 26.4375 253.844 26.4375ZM33.5938 31.0625L66.9062 31.0625L127.438 137.156L127.438 31.0625L157.031 31.0625L157.031 183.062L125.281 183.062L63.1875 75.0938L63.1875 183.062L33.5938 183.062L33.5938 31.0625ZM391.406 32.8125C405.704 32.8125 417.236 36.5167 426 43.9062C434.764 51.2958 439.125 61.2144 439.125 73.6562C439.125 82.4549 436.537 89.8572 431.313 95.9062C428.013 99.6869 424.574 102.281 421 103.656C423.681 103.656 427.513 105.957 432.531 110.562C440.024 117.505 443.781 127.002 443.781 139.031C443.781 151.679 439.389 162.786 430.625 172.375C421.861 181.964 408.904 186.75 391.719 186.75C370.547 186.75 355.811 179.848 347.562 166.031C343.232 158.676 340.825 149.048 340.344 137.156L369.219 137.156C369.219 143.137 370.2 148.082 372.125 152C375.699 159.218 382.176 162.844 391.594 162.844C397.368 162.844 402.423 160.859 406.719 156.906C411.015 152.954 413.156 147.268 413.156 139.844C413.156 130.014 409.161 123.456 401.188 120.156C396.651 118.3 389.511 117.375 379.75 117.375L379.75 96.3438C389.305 96.2063 395.969 95.281 399.75 93.5625C406.28 90.6754 409.531 84.8299 409.531 76.0312C409.531 70.3259 407.865 65.6682 404.531 62.0937C401.197 58.5193 396.518 56.75 390.469 56.75C383.526 56.75 378.45 58.9444 375.219 63.3438C371.919 67.7431 370.331 73.6136 370.469 80.9688L343.031 80.9688C343.306 73.5449 344.575 66.5115 346.844 59.8437C349.25 54.0009 353.032 48.6055 358.188 43.6562C362.037 40.1505 366.613 37.4497 371.906 35.5938C377.199 33.7378 383.707 32.8125 391.406 32.8125ZM253.844 53.3437C241.264 53.3437 231.243 57.9702 223.75 67.25C216.257 76.5298 212.5 89.7276 212.5 106.844C212.5 123.96 216.257 137.158 223.75 146.438C231.243 155.717 241.264 160.375 253.844 160.375C266.423 160.375 276.42 155.717 283.844 146.438C291.199 137.158 294.875 123.96 294.875 106.844C294.875 89.7963 291.202 76.6267 283.812 67.3125C276.423 57.9983 266.423 53.3438 253.844 53.3437Z" fill="currentColor" fill-rule="nonzero"/>
    <text fill="currentColor" font-family="Inter, Helvetica, Arial, sans-serif" font-weight="300" font-size="90.7109" text-anchor="start" transform="matrix(1 0 0 1 0 235.233)" x="0" y="0" letter-spacing="-2">
      <tspan textLength="598.057" x="0" y="69.8478">IMPACT FUND</tspan>
    </text>
  </g>
</svg>
